 http://desibbrg.org/images/66952052392581364616.gif 
http://desibbrg.org/images/60839542976772035560.jpg 
http://desibbrg.org/images/81600308335733736434.png 
http://desibbrg.org/images/26668999349123875260.png 
http://desibbrg.org/images/33648785363759494705.png 
http://desibbrg.org/images/61043101780252744285.png

Media Info - 
General
Complete name                    : Saheb Biwi Aur Gangster Returns(2013)1 CD RIPTeam IcTv Exclusive.avi
Format                           : AVI
Format/Info                      : Audio Video Interleave
File size                        : 682 MiB
Duration                         : 1h 51mn
Overall bit rate                 : 856 Kbps
Writing application              : Lavf52.93.0

Video
ID                               : 0
Format                           : MPEG-4 Visual
Format profile                   : Simple@L1
Format settings, BVOP            : No
Format settings, QPel            : No
Format settings, GMC             : No warppoints
Format settings, Matrix          : Default (H.263)
Codec ID                         : DIVX
Codec ID/Info                    : Project Mayo
Codec ID/Hint                    : DivX 4
Duration                         : 1h 51mn
Bit rate                         : 685 Kbps
Width                            : 352 pixels
Height                           : 288 pixels
Display aspect ratio             : 16:9
Frame rate                       : 29.970 fps
Standard                         : PAL
Color space                      : YUV
Chroma subsampling               : 4:2:0
Bit depth                        : 8 bits
Scan type                        : Progressive
Compression mode                 : Lossy
Bits/(Pixel*Frame)               : 0.225
Stream size                      : 546 MiB (80%)
Writing library                  : Lavc52.108.0

Audio
ID                               : 1
Format                           : MPEG Audio
Format version                   : Version 1
Format profile                   : Layer 3
Mode                             : Joint stereo
Mode extension                   : MS Stereo
Codec ID                         : 55
Codec ID/Hint                    : MP3
Duration                         : 1h 51mn
Bit rate mode                    : Constant
Bit rate                         : 128 Kbps
Channel(s)                       : 2 channels
Sampling rate                    : 44.1 KHz
Compression mode                 : Lossy
Stream size                      : 102 MiB (15%)
Alignment                        : Aligned on interleaves
Writing library                  : LAME3.98

Ripper : Master Mind

Seeding 24x7... Extreme Seeding...


Enjoy!
